<?xml version="1.0" standalone="no"?>
<!DOCTYPE svg PUBLIC "-//W3C//DTD SVG 20010904//EN"
 "http://www.w3.org/TR/2001/REC-SVG-20010904/DTD/svg10.dtd">
<svg version="1.0" xmlns="http://www.w3.org/2000/svg"
 width="260.000000pt" height="260.000000pt" viewBox="0 0 260.000000 260.000000"
 preserveAspectRatio="xMidYMid meet">
<metadata>
Created by potrace 1.14, written by Peter Selinger 2001-2017
</metadata>
<g transform="translate(0.000000,260.000000) scale(0.100000,-0.100000)"
fill="#000000" stroke="none">
<path d="M0 1539 c0 -704 3 -1058 10 -1054 6 4 10 66 10 153 0 81 8 218 17
305 14 131 15 179 6 290 -13 156 -6 189 47 225 30 21 43 23 90 18 30 -4 123
-11 205 -16 315 -19 360 -36 475 -180 70 -88 98 -137 134 -239 l31 -86 63 -33
62 -33 0 -55 c0 -61 -8 -65 -55 -34 -16 11 -35 20 -41 20 -7 0 -15 -28 -19
-67 -4 -38 -15 -94 -26 -125 -26 -78 -25 -86 14 -93 47 -9 112 11 136 41 23
29 48 28 90 -5 l25 -19 -28 -37 c-45 -59 -92 -75 -224 -75 l-113 0 -62 -52
c-74 -61 -105 -76 -262 -121 -129 -37 -446 -83 -499 -73 -17 4 -43 18 -58 33
l-28 27 0 -127 0 -127 1300 0 1300 0 0 347 c0 190 -3 343 -6 340 -4 -4 -16
-33 -26 -64 -24 -71 -90 -187 -132 -231 -50 -54 -92 -75 -131 -68 -24 5 -37 2
-47 -9 -7 -9 -20 -24 -29 -34 -25 -29 -169 -55 -304 -55 -113 -1 -123 1 -166
26 -25 15 -61 44 -78 64 -30 34 -32 40 -26 84 6 42 4 50 -16 63 -17 12 -27 13
-42 6 -27 -15 -40 1 -71 83 -60 160 -79 327 -46 405 12 27 12 36 1 57 -27 49
16 185 70 225 16 12 41 40 56 62 31 47 83 80 184 115 173 61 317 70 433 29 38
-13 73 -28 78 -33 5 -5 -1 -34 -16 -68 -13 -32 -29 -74 -36 -91 -14 -36 -21
-39 -53 -21 -48 26 -129 35 -197 22 -110 -21 -185 -49 -236 -88 -74 -56 -88
-90 -92 -226 -6 -189 46 -352 146 -459 47 -50 49 -51 105 -51 69 0 189 24 264
52 75 28 116 67 158 150 32 65 35 78 35 157 0 94 -12 149 -55 256 l-28 69 34
100 c18 54 40 106 48 114 13 13 18 11 38 -14 59 -73 163 -321 163 -387 0 -14
5 -29 10 -32 7 -4 10 282 10 849 l0 856 -1300 0 -1300 0 0 -1061z m512 626
c49 -33 61 -64 66 -170 5 -112 -4 -145 -41 -145 -36 0 -47 19 -47 80 -1 135
-39 184 -95 124 -22 -24 -25 -36 -25 -105 0 -57 -4 -82 -16 -93 -40 -41 -71
-4 -80 95 -11 119 -29 144 -74 99 -16 -16 -20 -33 -20 -88 0 -77 -17 -112 -55
-112 -14 0 -29 8 -35 19 -15 28 -13 264 2 279 7 7 32 12 58 12 25 0 63 5 84
11 30 8 49 8 78 -2 31 -10 45 -9 85 4 49 16 84 13 115 -8z m160 -12 c9 -10 28
-46 43 -81 19 -42 33 -62 43 -60 8 2 25 31 38 66 27 75 39 92 68 92 29 0 46
-18 46 -50 0 -62 -131 -332 -182 -375 -41 -35 -74 -41 -98 -20 -29 26 -25 37
25 91 25 26 45 56 45 66 0 10 -13 36 -29 58 -38 53 -82 164 -74 187 16 46 48
56 75 26z m603 -1473 c3 -5 1 -10 -4 -10 -6 0 -11 5 -11 10 0 6 2 10 4 10 3 0
8 -4 11 -10z"/>
<path d="M260 1243 c0 -5 -2 -66 -4 -138 -2 -71 -8 -184 -14 -250 -6 -66 -12
-190 -14 -275 l-3 -155 35 -3 c93 -9 363 63 437 117 56 41 112 137 125 214 20
115 -26 263 -120 388 -55 73 -85 88 -190 99 -106 12 -252 13 -252 3z"/>
</g>
</svg>
