<svg width="115" height="18" viewBox="0 0 346 55" fill="none" stroke="#FF1" xmlns="http://www.w3.org/2000/svg">
<path d="M3 51.5205C3.03761 50.8812 3.4701 50.1304 3.7421 49.5561C4.00685 48.9972 4.03148 48.1629 4.22229 47.5481C4.46793 46.7566 4.86632 46.0471 5.16083 45.2781C5.63884 44.03 5.7716 42.6973 6.18668 41.4366C6.57423 40.2597 7.54057 38.709 7.70363 37.486C7.85464 36.3535 8.62251 35.1766 8.98049 34.0702C9.54169 32.3355 10.1561 30.6139 10.5083 28.8209C10.7741 27.468 11.6092 26.2153 12.2327 25.0012C12.5812 24.3225 12.9905 23.7443 13.4113 23.1132C13.9158 22.3564 13.7882 21.5015 14.208 20.7668C15.1187 19.1731 15.3637 17.1966 16.4452 15.7031C17.4291 14.3444 17.8367 12.5128 18.4314 10.9449C19.1663 9.00742 19.7983 7.16196 20.243 5.16083C20.2812 4.98883 20.6552 3.68568 20.6795 4.02585C20.7969 5.66851 21.5748 7.34026 21.8582 8.96957C22.1296 10.5302 22.4773 12.3795 23.1896 13.8042C24.4578 16.3405 25.6703 18.8641 26.6819 21.4653C27.5862 23.7908 29.1143 25.7245 30.1959 27.9478C31.4027 30.4284 31.9277 33.2997 32.4659 35.9909C32.85 37.9112 33.5362 40.1718 34.6267 41.8077C35.1597 42.6071 35.7724 43.3368 36.2856 44.1431C36.6517 44.7185 36.9345 45.5225 37.3769 46.0202C38.8343 47.6598 38.0751 49.9703 38.9484 51.717M31.8767 37.1804C27.1027 36.5837 22.0498 36.6418 17.231 36.3947C16.0079 36.332 14.9571 35.8054 13.706 35.8054C13.0614 35.8054 11.1961 35.5214 10.8577 36.1982"  stroke-width="6" stroke-linecap="round"/>
<path d="M78.4327 4.37508C78.9197 14.1135 79.2185 23.7851 79.2185 33.5572C79.2185 39.5561 79.4149 45.5658 79.4149 51.5205M76.2719 40.127C76.2719 39.5199 75.9923 41.311 75.7917 41.8841C75.545 42.589 75.3709 43.0833 75.0059 43.7612C74.3625 44.956 73.5366 46.1554 72.6487 47.2971C71.5832 48.667 70.682 49.7608 68.8617 50.2328C68.0749 50.4368 67.2109 50.1533 66.5372 50.5383C65.9582 50.8692 65.2225 50.7348 64.5728 50.7348C62.9581 50.7348 61.5368 51.1163 59.8692 50.7457C58.9402 50.5392 57.3842 49.0895 57.0208 48.1811C56.7605 47.5303 56.0257 46.9323 55.6457 46.3149C54.9821 45.2365 54.2961 44.1244 53.5831 43.0736C52.5979 41.6217 51.8217 39.7921 51.5096 38.0753C50.568 32.8968 50.4341 26.2019 53.9214 21.9673C55.1717 20.4491 57.567 19.6762 59.3781 19.108C60.9608 18.6115 62.5974 18.5187 64.2454 18.5187C65.3194 18.5187 66.3838 18.2889 67.5194 18.3223C69.1888 18.3714 70.7034 19.7089 71.7538 20.876C72.4072 21.602 72.8072 22.6661 73.4126 23.4733C74.0084 24.2677 74.8106 24.6876 75.3333 25.5905C75.9591 26.6714 76.5281 27.6744 77.0576 28.7336"  stroke-width="6" stroke-linecap="round"/>
<path d="M95.7194 17.3401C95.383 17.3821 95.2154 22.4722 95.1738 23.1459C94.9855 26.1964 94.608 29.2552 94.5299 32.3022C94.4288 36.2458 94.3444 40.1736 94.3444 44.1213C94.3444 46.5035 96.1123 48.342 96.1123 50.7348M98.4696 23.6261C98.6495 22.637 99.896 21.6206 100.587 20.9851C101.407 20.2304 102.023 19.5368 102.944 18.9116C104.086 18.1367 105.631 17.2679 107.047 17.1545C108.884 17.0076 111.164 15.8173 112.22 17.9294"  stroke-width="6" stroke-linecap="round"/>
<path d="M122.435 33.4481C127.087 33.4481 131.733 33.0552 136.361 33.0552C138.848 33.0552 141.432 32.8754 143.847 33.5463C144.497 33.7269 145.333 33.841 146.008 33.841C146.858 33.841 147.943 34.4536 147.678 33.339C147.11 30.9561 146.155 28.4901 144.906 26.3763C144.256 25.2771 143.328 24.1332 142.548 23.1132C141.735 22.0492 141.091 20.842 140.213 19.8283C138.948 18.369 137.407 17.5365 135.422 17.5365C133.136 17.5365 131.277 17.2405 129.038 17.9294C128.188 18.1909 127.624 18.8006 126.844 19.2062C126.314 19.4819 125.717 19.7419 125.229 20.0902C124.815 20.3859 124.641 20.8891 124.203 21.1706C123.59 21.5645 123.228 22.69 122.828 23.3206C122.184 24.3352 121.907 25.638 121.693 26.8128C121.483 27.9655 121.24 29.1289 121.104 30.3051C120.948 31.6485 120.31 32.8959 120.274 34.2339C120.251 35.0864 119.909 36.2377 119.729 37.0931C119.536 38.0087 119.685 39.0851 119.685 40.0179C119.685 41.8273 120.476 42.9651 121.431 44.5578C121.898 45.336 122.672 46.8585 123.461 47.3953C124.97 48.4217 126.525 49.4501 128.285 50.1018C130.522 50.9304 132.781 50.7849 135.138 50.7348C136.391 50.7081 137.571 50.4049 138.631 49.9054C139.306 49.5869 140.238 49.6854 140.715 49.065C141.034 48.6498 141.609 48.3721 142.035 48.0719C142.553 47.7078 144.829 46.068 144.829 45.4309"  stroke-width="6" stroke-linecap="round"/>
<path d="M161.134 16.5543C161.406 20.9109 161.858 25.2431 161.625 29.6175C161.527 31.4488 161.527 33.2737 161.527 35.1069C161.527 36.2922 161.261 37.3784 161.145 38.5446C160.998 40.0079 160.937 41.4388 160.937 42.9318C160.937 45.509 161.723 48.1852 161.723 50.7348M163.884 25.1977C163.992 24.2225 165.47 23.0027 166.088 22.4257C167.957 20.6814 170.198 19.6477 172.254 18.2241C174.303 16.8057 176.95 16.3579 179.381 16.3579C184.333 16.3579 185.058 21.9189 185.285 25.7761C185.368 27.196 185.864 28.583 185.885 29.9995C185.928 32.8066 185.885 35.6168 185.885 38.4246C185.885 40.7725 185.827 43.1654 186.474 45.4309C187.025 47.3595 186.474 49.4503 186.474 51.3241"  stroke-width="6" stroke-linecap="round"/>
<path d="M202.779 23.4297C203.247 23.3361 203.62 22.7829 203.914 22.4475C204.675 21.5773 205.551 20.8843 206.424 20.1339C207.488 19.2189 207.845 18.9214 209.283 18.5187C211.778 17.8201 214.853 17.5966 217.446 17.973C218.611 18.1421 221.119 18.6243 221.932 19.7083C222.497 20.4614 222.811 21.2557 223.11 22.1528C223.443 23.1505 224.085 24.1392 224.191 25.1976C224.269 25.9784 224.673 26.6478 224.824 27.4021C225.1 28.7823 225.244 30.1726 225.468 31.5601C225.918 34.3523 225.598 37.2763 226.002 40.0616C226.345 42.4248 226.352 44.6971 226.352 47.0897C226.352 48.3822 225.959 49.6084 225.959 50.9312M224.387 44.4487C223.118 45.7175 220.239 48.0335 218.407 48.3666C217.954 48.449 217.832 48.8027 217.446 49.0105C216.832 49.3411 216.203 49.6005 215.657 50.0472C214.874 50.6878 213.976 50.819 213.081 51.2259C211.701 51.8531 209.644 51.5205 208.17 51.5205C206.855 51.5205 205.216 51.0769 204.001 50.582C202.115 49.8135 200.777 47.3314 200.072 45.5837C199.071 43.0997 198.867 40.4958 199.941 38.0535C200.424 36.9564 201.193 36.2768 202.179 35.6198C203.104 35.0028 204.66 34.257 205.758 34.0374C210.245 33.1402 214.965 32.8588 219.52 32.8588C220.455 32.8588 223.519 33.4162 223.994 32.4659"  stroke-width="6" stroke-linecap="round"/>
<path d="M241.87 3C241.87 16.1233 241.281 29.2705 241.281 42.3752C241.281 45.5516 242.067 48.5074 242.067 51.717"  stroke-width="6" stroke-linecap="round"/>
<path d="M258.961 16.5543C258.961 11.6433 258.633 26.3872 258.961 31.2873C259.237 35.4156 258.836 39.6182 259.255 43.7284C259.392 45.0714 259.353 46.4173 259.353 47.7663C259.353 48.8695 259.788 50.7704 259.157 51.717M258.371 4.5715C258.785 4.67486 258.375 5.16082 258.961 5.16082"  stroke-width="6" stroke-linecap="round"/>
<path d="M274.872 16.3579C274.872 23.3234 276.957 30.1041 277.219 37.0386C277.312 39.5059 277.186 42.0006 277.022 44.4596C276.849 47.0626 274.676 49.1771 274.676 51.717M299.624 51.9134C299.064 51.8434 299.034 47.0096 299.034 46.5222C299.034 44.2096 299.253 41.908 299.231 39.5814C299.202 36.6792 298.743 33.8031 298.456 30.9271C298.065 27.0233 299.083 21.5423 295.891 18.5187C294.229 16.9436 291.988 16.7507 289.758 16.7507C289.144 16.7507 288.31 17.0221 287.794 17.3401C286.637 18.0517 284.865 18.1555 283.821 19.0098C281.608 20.8208 280.097 23.3383 278.408 25.5905"  stroke-width="6" stroke-linecap="round"/>
<path d="M318.875 33.6445C320.966 33.6445 323.053 33.841 325.15 33.841C326.802 33.841 328.452 33.3282 330.126 33.2626C333.493 33.1306 336.804 32.8588 340.188 32.8588C340.809 32.8588 341.324 33.0552 341.956 33.0552C342.157 33.0552 342.356 33.3317 342.535 33.2298C343.002 32.9627 342.377 31.5679 342.24 31.2764C341.507 29.718 340.557 28.2935 339.795 26.7692C339.279 25.7374 338.241 24.7177 337.929 23.6261C337.338 21.5583 335.048 19.1517 333.193 18.2241C332.419 17.8372 331.298 17.8284 330.454 17.7439C329.547 17.6532 328.604 17.5365 327.703 17.5365C327.187 17.5365 326.67 17.5365 326.154 17.5365C325.659 17.5365 325.286 17.8633 324.79 17.9185C323.955 18.0112 323.578 18.3939 322.803 18.7261C321.995 19.0723 321.408 20.1278 320.752 20.6905C320.197 21.1655 319.237 22.5007 318.885 23.146C317.913 24.9291 316.652 26.2314 316.081 28.2315C315.462 30.3976 315.142 32.5167 315.142 34.7795C315.142 36.1357 315.049 37.5118 315.579 38.7956C316.101 40.0615 316.415 41.5787 317.107 42.7462C317.884 44.0578 318.136 45.7842 319.224 46.9588C320.742 48.5984 321.609 50.1486 323.938 50.582C326.064 50.9775 328.215 50.9312 330.399 50.9312C334.531 50.9312 338.056 48.6437 340.876 45.8238"  stroke-width="6" stroke-linecap="round"/>
</svg>
