<svg width="65" height="20" viewBox="0 0 397 125" fill="none" stroke="#bbb" xmlns="http://www.w3.org/2000/svg">
<path d="M73.9913 58.9901C71.4055 55.0739 68.9761 49.5895 64.9265 46.8897C63.3812 45.8595 61.8592 44.5151 60.4255 43.3308C58.5509 41.7822 56.209 40.8489 53.9357 40.065C49.9113 38.6772 45.5559 37.5109 41.2282 37.5109C34.5595 37.5109 26.8375 40.5339 22.1564 45.215C16.7409 50.6305 11.4933 56.6914 8.79994 64.0983C5.86899 72.1584 6.17012 80.2307 7.69038 88.5921C8.00886 90.3438 9.55359 92.3448 9.55359 94.0562C9.55359 95.04 10.2742 95.5195 10.3073 96.3799C10.3458 97.3816 10.3083 97.9128 10.8516 98.7665C12.6358 101.57 13.4049 105.066 16.3365 107.308C18.0002 108.58 19.2534 110.001 21.0259 111.16C23.1477 112.547 25.9964 113.971 28.5416 114.363C30.2607 114.628 31.7785 115.72 33.2938 116.477C35.0505 117.356 37.4379 117.775 39.4068 117.775C42.083 117.775 44.7297 117.165 47.2365 117.022C49.8293 116.874 52.7183 116.846 55.1708 116.08C56.6958 115.603 58.3255 115.174 59.6928 114.217C61.7936 112.746 64.8068 112.65 66.9153 111.369C68.0333 110.691 69.0861 109.462 69.7625 108.355C70.4255 107.27 71.64 106.479 72.1281 105.34C72.4865 104.504 73.4555 103.938 73.9076 103.079C74.1977 102.528 74.2663 101.906 74.5566 101.383C74.8994 100.766 74.3682 99.058 74.3682 98.1803"  stroke-width="13" stroke-linecap="round"/>
<path d="M135.791 39.0182C135.951 37.7427 145.988 40.1487 147.473 40.1487C149.589 40.1487 151.671 40.9024 153.691 40.9024C154.431 40.9024 155.241 41.4001 155.973 41.5723C156.912 41.7933 156.623 42.201 157.354 42.4934C160.889 43.9071 163.087 47.899 166.126 49.9253C168.375 51.425 172.146 54.9899 172.741 57.6712C172.997 58.8223 174.041 60.0636 174.437 61.2511C174.99 62.9098 175.513 64.5752 176.3 66.1499C176.987 67.5229 176.772 69.0231 177.242 70.4625C177.81 72.1999 177.958 73.5063 177.996 75.3194C178.092 79.8251 178.41 83.5392 176.949 87.9222C175.482 92.3248 173.088 96.3114 171.967 100.797C171.012 104.616 167.162 107.696 163.844 109.506C161.84 110.599 159.923 111.213 157.689 111.83C155.538 112.424 153.134 113.524 151.053 113.986C148.269 114.605 145.191 115.338 142.197 115.808C136.079 116.767 128.476 117.346 123.272 113.798C118.821 110.763 114.933 107.559 111.214 103.749C109.383 101.873 108.096 99.8598 107.152 97.4057C106.127 94.7405 106.022 92.769 106.022 89.8901C106.022 83.5887 105.577 77.1044 106.043 70.8184C106.521 64.3651 108.964 58.3391 111.8 52.6678C112.775 50.7177 114.371 48.9431 115.819 47.2875C116.532 46.4733 117.099 45.2996 118.08 44.7544C119.176 44.1456 120.489 43.7084 121.262 42.7028C123.669 39.5742 128.372 40.9497 131.269 39.0182"  stroke-width="13" stroke-linecap="round"/>
<path d="M212.288 6.61092C212.288 12.1936 212.288 17.7762 212.288 23.3589C212.288 30.3056 213.795 37.1319 213.795 44.0845C213.795 47.0363 213.795 49.9881 213.795 52.9399C213.795 54.4959 213.811 56.0527 213.795 57.6084C213.778 59.2217 213.164 60.5987 213.062 62.1722C212.704 67.7183 212.288 73.2495 212.288 78.8155C212.288 91.6766 212.288 104.538 212.288 117.399"  stroke-width="13" stroke-linecap="round"/>
<path d="M258.261 48.4389C256.607 48.8064 254.68 52.7487 254.116 54.3007C253.423 56.2056 252.073 58.0814 251.017 59.8275C248.734 63.6028 246.956 67.6827 246.956 72.2001C246.956 75.0953 246.202 77.9606 246.202 80.8462C246.202 82.3111 246.881 83.3143 246.956 84.6145C247.07 86.6142 248.403 88.659 249.196 90.4135C250.062 92.3322 250.54 94.1937 251.289 96.1078C251.867 97.5841 252.722 98.9894 253.383 100.42C254.563 102.978 256.911 106.326 259.182 107.978C263.224 110.918 266.659 111.866 271.91 112.416C280.731 113.34 289.961 114.707 298.456 112.584C301.68 111.777 304.29 110.357 307.06 108.564C308.908 107.368 311.342 104.81 312.063 102.702C312.914 100.215 315.112 98.1037 315.539 95.5425C315.993 92.8159 317.258 90.5556 317.821 87.8385C318.08 86.5836 318.771 85.4581 319.139 84.2377C319.547 82.8869 319.562 81.2895 319.893 79.8832C320.586 76.9404 320.116 73.3193 320.061 70.295C320.003 67.1049 319.089 63.9565 317.967 60.9999C316.925 58.252 315.005 55.7259 314.199 52.9609C313.558 50.7651 311.756 48.2171 310.556 46.2617C309.569 44.653 307.443 42.9109 305.741 42.2422C297.956 39.1839 290.425 38.8822 282.126 39.0182C275.615 39.1249 269.856 43.4202 263.432 43.896C261.48 44.0406 259.768 46.6019 259.768 48.4389"  stroke-width="13" stroke-linecap="round"/>
<path d="M353.975 117.775C351.511 111.252 352.468 103.244 352.468 96.3381C352.468 93.4152 352.845 90.5165 352.845 87.6291C352.845 79.4218 353.779 71.1408 353.18 62.905C352.894 58.9701 352.091 55.0994 352.091 51.1605C352.091 49.2317 352.468 47.3721 352.468 45.4243C352.468 42.3673 353.598 39.4571 353.598 36.3804"  stroke-width="13" stroke-linecap="round"/>
<path d="M360.004 58.2365C361.052 56.927 361.74 55.2154 362.831 53.882C363.861 52.6225 364.919 51.3424 365.741 49.9462C366.579 48.5214 368.575 47.6244 369.802 46.5339C372.152 44.4453 375.069 43.575 377.569 41.8444C381.168 39.3524 384.311 40.47 387.869 41.656C391.168 42.7558 389.774 46.4125 389.774 48.8158"  stroke-width="13" stroke-linecap="round"/>
</svg>
