<svg width="692" height="99" viewBox="0 0 692 99" fill="none" stroke="black" xmlns="http://www.w3.org/2000/svg">
<path d="M4.98853 69.0784C6.84265 63.6396 9.25994 58.5315 11.7751 53.3741C14.3774 48.0382 17.7768 42.9086 19.6437 37.2436C21.1656 32.6254 22.0416 27.8052 23.2337 23.0967C23.9177 20.3947 24.8047 17.6544 25.1188 14.8839C25.5009 11.5151 27.1238 8.78261 27.7253 5.47447C28.0921 3.45686 30.0295 6.95428 30.3645 7.57274C31.3744 9.43715 31.8141 11.2702 32.43 13.2938C34.375 19.6847 35.2569 26.1899 38.0691 32.3586C41.096 38.9982 44.0593 45.655 47.5933 52.0463C48.7831 54.1981 50.0974 56.1539 50.8883 58.4887C51.6593 60.7651 52.6477 63.067 53.675 65.2425C54.2483 66.4566 54.7118 67.812 55.134 69.0784C55.3164 69.6256 55.259 70.6081 55.7405 70.8488M45.1179 53.1446C45.009 52.7089 38.876 53.11 38.1674 53.079L38.1516 53.0784C35.1953 52.949 32.1276 52.8148 29.1841 53.2102C28.2081 53.3413 27.2622 53.6036 26.2662 53.6036C23.8559 53.6036 21.3888 53.4397 18.9551 53.4397C17.8643 53.4397 16.9602 52.8495 15.906 52.8495"  stroke-width="9" stroke-linecap="round"/>
<path d="M74.9199 69.9636V19.8017M77.2805 32.4897C77.9712 29.8997 80.6433 27.8454 82.3951 25.9654C85.0076 23.1617 87.9964 21.8336 91.2963 20.0968C92.8901 19.258 95.1573 18.7024 96.9354 18.5723C98.028 18.4923 97.6403 20.6677 97.6403 21.2443V25.9982"  stroke-width="9" stroke-linecap="round"/>
<path d="M115.05 44.5876C115.282 44.122 116.251 44.2925 116.672 44.2925C119.155 44.2925 121.619 44.1427 124.098 43.9811C129.819 43.608 135.554 43.3488 141.278 43.1286C145.678 42.9594 149.944 44.3297 154.327 44.5384C155.733 44.6054 150.461 32.5376 149.294 30.6538C145.85 25.0958 140.13 20.982 133.377 20.982C130.559 20.982 127.69 21.189 124.869 21.2935C121.985 21.4003 119.285 23.2955 117.164 25.113C115.591 26.4613 112.868 28.4691 112.328 30.5554C111.85 32.4037 110.722 33.9845 110.263 35.8667C109.719 38.0937 109.244 40.2301 109.083 42.5221C108.837 46.0058 108.71 49.2951 109.509 52.7184C110.547 57.1701 113.515 60.4449 116.82 63.4065C119.517 65.8234 122.858 67.7445 126.459 68.3243C131.808 69.1856 137.045 67.3308 142.032 65.4392C143.721 64.7986 145.52 64.2249 147.048 63.2426C148.366 62.3955 149.261 60.9982 150.458 59.9968C150.81 59.7026 152.523 58.4118 152.523 58.4559"  stroke-width="9" stroke-linecap="round"/>
<path d="M196.194 19.8017C198.322 25.4766 201.462 30.7179 204.029 36.1945C206.966 42.4593 209.453 48.7092 211.914 55.1609C212.902 57.7503 213.203 60.5796 214.242 63.1114C214.665 64.1425 215.668 65.284 215.668 66.4227M238.389 19.8017C236.099 24.1665 234.859 28.904 233.176 33.5061C229.971 42.2687 226.069 50.8982 221.193 58.8657C219.336 61.8985 217.406 64.706 216.111 68.0292C215.335 70.0192 214.029 72.1544 213.668 74.2585C213.201 76.9829 212.553 80.0558 211.521 82.6352C210.086 86.2222 207.996 90.2842 207.996 94.1593"  stroke-width="9" stroke-linecap="round"/>
<path d="M265.83 24.5229C263.948 24.694 262.53 26.7856 261.404 28.0801C258.118 31.8589 256.61 37.5223 255.257 42.2598C253.772 47.4549 253.887 53.0977 256.552 57.8657C257.634 59.8023 259.092 62.0497 260.88 63.4065C263.688 65.5383 267.323 65.5778 270.682 65.767C273.892 65.9479 277.172 65.8893 280.387 65.8326C282.33 65.7983 283.793 65.4011 285.6 64.849C286.195 64.6673 286.905 64.7643 287.436 64.4228C288.536 63.7155 289.775 63.7365 290.829 62.8327C292.942 61.022 294.587 60.784 295.485 57.9969C296.537 54.729 296.566 50.9478 296.927 47.5383C297.491 42.217 297.379 36.291 296.173 31.0636C295.496 28.1277 294.633 25.1634 292.091 23.4082C288.763 21.1101 283.554 20.3308 279.6 20.0312C278.145 19.921 276.28 19.6573 274.863 20.146C273.377 20.6581 272.022 21.881 270.584 22.5557C268.752 23.4155 266.808 23.529 264.945 24.2278"  stroke-width="9" stroke-linecap="round"/>
<path d="M321.303 19.2116V46.5056C321.303 49.321 322.116 52.0405 322.418 54.8495C322.938 59.689 325.805 63.5202 329.5 66.4228C331.996 68.3841 334.467 68.1932 337.548 68.1932C341.243 68.1932 345.928 68.1808 349.236 66.3572C352.437 64.5926 357.086 61.8381 358.777 58.4559M361.728 20.0968C361.728 32.259 361.433 44.4612 361.433 56.5871V68.1932"  stroke-width="9" stroke-linecap="round"/>
<path d="M442.872 31.0144C441.324 29.4665 440.866 27.6718 439.692 25.8343C438.095 23.3348 435.904 21.0554 433.102 19.9657C430.808 19.0738 428.093 19.6616 425.741 19.7853C423.004 19.9294 419.816 20.5528 417.365 21.8017C414.633 23.1933 412.409 26.5481 410.578 28.9325C409.75 30.0113 410.045 31.9313 409.89 33.2438C409.533 36.2493 413.779 37.9302 415.84 39.2599C420.95 42.5568 426.899 43.9808 432.446 46.358C434.672 47.312 436.921 48.3415 438.806 49.8988C441.337 51.9892 441.692 53.1633 441.692 56.2428C441.692 60.6694 442.657 65.0306 437.397 66.7178C434.544 67.6329 431.693 68.2931 428.709 68.6522C425.901 68.9899 421.996 69.2762 419.299 68.4555C416.338 67.5541 413.956 65.3717 411.234 63.9638C409.348 62.9886 408.673 60.9919 408.349 59.046"  stroke-width="9" stroke-linecap="round"/>
<path d="M463.232 18.9165C463.232 29.1914 462.686 39.6457 463.691 49.8661C464.156 54.6004 464.474 58.4483 466.609 62.718C467.643 64.7864 468.192 66.4432 470.526 67.1768C477.333 69.3159 484.276 69.1276 490.985 66.8326C492.297 66.3837 493.034 65.7045 494.099 64.9638C495.43 64.038 497.124 63.7098 498.443 62.7344C499.845 61.6986 500.862 59.8214 501.886 58.4559M503.951 19.2116C505.083 29.4001 505.225 39.5721 505.132 49.8333C505.091 54.2575 503.558 58.565 503.378 62.9803C503.295 65.0084 503.361 67.0483 503.361 69.0784"  stroke-width="9" stroke-linecap="round"/>
<path d="M528.147 69.3734C527.487 52.8802 527.852 36.3191 527.852 19.8017M531.688 31.8996C531.688 31.141 532.459 30.7313 532.868 30.1292C533.805 28.751 534.644 27.2845 535.524 25.867C537.059 23.3944 539.082 21.9725 541.346 20.3817L541.425 20.3263C542.891 19.296 546.041 18.3778 547.622 19.5067C549.188 20.6254 549.392 22.7202 549.392 24.5228"  stroke-width="9" stroke-linecap="round"/>
<path d="M605.16 57.5707C604.495 57.6446 603.725 58.8434 603.324 59.3411C602.118 60.8381 600.695 62.179 599.406 63.6032C597.006 66.2557 596.051 67.3411 592.472 68.1932C588.997 69.0206 585.004 69.3557 581.456 68.8489C579.504 68.5699 577.813 67.1488 576.047 66.3572C573.397 65.1694 570.68 63.1636 569.162 60.6689C567.563 58.0417 566.963 54.9255 565.457 52.325C564.618 50.8757 564.478 48.8506 564.146 47.2432C563.663 44.9113 563.449 42.6813 563.572 40.2927C563.75 36.8168 565.699 33.3252 567.867 30.6865C569.087 29.2007 570.259 27.5015 571.67 26.1949C573.337 24.6508 576.102 23.4787 578.145 22.4574C581.279 20.8901 585.458 21.1794 588.833 21.0148C590.887 20.9146 592.694 22.3836 594.439 23.4082C598.18 25.604 601.988 28.9368 604.275 32.6209C605.25 34.1913 605.605 35.7711 605.98 37.5715C606.181 38.5357 606.225 40.5051 606.799 41.3254C608.822 44.2153 604.425 45.1377 602.341 44.8171C598.662 44.2512 594.722 44.2925 590.997 44.2925C587.696 44.2925 584.396 44.2925 581.096 44.2925C579.594 44.2925 578.049 44.4758 576.604 44.063C574.148 43.3614 571.323 44.5211 568.867 43.7024"  stroke-width="9" stroke-linecap="round"/>
<path d="M650.601 19.2116C650.601 12.0618 655.912 6.62511 662.896 5.8679C667.825 5.33339 673.069 4.86749 677.944 5.78593C681.034 6.36818 683.106 10.7795 684.6 13.1463C685.308 14.2688 686.074 15.3811 686.304 16.7035C686.788 19.4833 686.848 21.9111 686.665 24.7851C686.429 28.4752 683.873 32.4496 680.796 34.5716C679.005 35.8072 677.195 36.8449 675.239 37.801C672.961 38.9149 670.993 39.3739 668.567 39.9976C666.901 40.426 663.938 40.2665 662.699 41.5058C660.998 43.2065 659.5 46.1427 659.191 48.5382C658.961 50.3158 659.158 52.2297 659.158 54.0298M661.518 66.1277V65.8326"  stroke-width="9" stroke-linecap="round"/>
</svg>
