<svg width="60" height="20" viewBox="0 0 360 122" fill="none" stroke="#bbb" xmlns="http://www.w3.org/2000/svg">
<path d="M81.1095 6.81011C82.1056 9.30021 81.5632 12.5475 81.5632 15.1777C81.5632 18.2498 81.345 21.2012 81.1347 24.2509C80.8637 28.1799 81.1095 32.2034 81.1095 36.1469C81.1095 42.6215 82.6146 48.8268 82.899 55.2259C83.306 64.3836 83.8315 73.6179 83.8315 82.7732C83.8315 85.4855 83.6286 88.2939 83.9323 90.9896C84.1065 92.5355 83.9328 94.6079 84.386 96.0807C85.0067 98.0982 84.9459 100.805 84.386 102.835C84.0757 103.96 83.57 113.29 84.7388 113.874"  stroke-width="13" stroke-linecap="round"/>
<path d="M78.2098 60.049C75.8268 57.666 74.3063 54.7393 72.5223 51.8819C72 51.0453 70.0604 46.5426 68.5705 46.1169C67.7299 45.8767 67.0368 44.5304 66.2149 44.4277C65.8678 44.3843 65.5533 43.8051 65.2385 43.6063C64.7597 43.3039 64.2038 43.4271 63.8283 43.0174C63.0097 42.1245 61.786 42.2478 60.9148 41.5142C58.9276 39.8407 56.2266 38.6783 53.817 37.7948C49.9675 36.3833 45.9745 36.9188 42.0856 36.1986C39.5626 35.7314 37.0546 36.3381 34.5694 36.3381C32.3886 36.3381 30.2855 37.7863 28.2465 38.3527C27.3124 38.6122 25.7462 39.1483 25.0695 39.825C24.6979 40.1966 24.3357 40.4355 23.8142 40.5224C23.3101 40.6064 22.8243 41.6462 22.1405 41.8551C20.5832 42.331 17.9244 44.4416 16.9644 45.8379C15.5346 47.9176 14.1265 49.4902 13.0746 51.8044C12.6499 52.7386 12.4274 53.82 12.0363 54.7489C11.6276 55.7194 10.8499 57.0712 10.7035 58.0963C10.4591 59.8068 9.32331 62.1754 8.53387 63.6754C8.05389 64.5873 8.14736 65.5927 7.759 66.4804C7.30427 67.5198 6.95444 68.6706 6.81366 69.7968C6.50862 72.2372 6.79817 74.8802 6.79817 77.344C6.79817 79.4398 6.70125 81.4181 7.29408 83.4189C7.80844 85.1549 8.05116 87.0884 8.81282 88.781C9.63148 90.6003 10.0206 94.8055 11.5403 96.1732C14.1552 98.5266 15.6385 102.119 18.3747 104.247C19.3636 105.016 21.2173 106.746 21.8616 107.874C22.3258 108.686 23.2994 108.824 23.9692 109.423C24.788 110.156 25.6866 110.736 26.6657 111.314C27.4101 111.754 28.6765 112.318 29.5482 112.476C30.4853 112.647 31.8869 112.787 32.7407 113.112C34.508 113.785 36.55 114.516 38.3352 114.739C39.968 114.943 42.4383 115.478 44.0382 114.863C45.1264 114.444 46.4013 114.926 47.5251 114.662C48.3976 114.456 49.2084 114.2 50.0977 114.166C51.7646 114.102 53.3912 113.05 55.0568 113.05C56.3295 113.05 57.8199 112.32 58.9776 111.934C59.2906 111.83 60.6781 110.991 60.8528 110.694C61.2114 110.085 61.9483 109.98 62.449 109.423C62.9593 108.857 63.6896 108.486 64.3242 108.029C64.7132 107.749 66.4478 106.444 66.4938 106.076C66.5481 105.642 67.3625 104.99 67.6096 104.557C67.9674 103.931 69.4201 103.335 70.1202 102.946C71.5783 102.135 72.523 101.109 73.6071 99.7841C74.9556 98.1359 75.9096 96.2568 76.5361 94.2206C76.9693 92.8127 78.2098 91.4359 78.2098 89.8968"  stroke-width="13" stroke-linecap="round"/>
<path d="M190.069 34.6644C190.069 40.9238 190.348 47.1843 190.348 53.4161C190.348 61.152 190.906 68.7516 190.906 76.4761C190.906 79.8192 190.907 83.0216 191.402 86.3014C191.614 87.7059 191.743 89.1698 191.743 90.5942C191.743 93.5697 191.743 96.5452 191.743 99.5206C191.743 102.031 191.743 104.542 191.743 107.052C191.743 108.471 191.759 109.754 191.247 111.097C190.89 112.034 191.464 112.797 191.464 113.608"  stroke-width="13" stroke-linecap="round"/>
<path d="M183.096 57.8174C182.845 56.0663 181.386 54.4356 180.57 52.9047C179.716 51.3046 178.954 49.7704 177.858 48.333C176.389 46.4085 174.325 44.6736 172.495 43.0949C171.192 41.9701 169.838 40.6602 168.652 39.4066C166.636 37.2748 163.297 37.0498 160.563 36.679C158.187 36.357 155.651 36.617 153.248 36.617C151.298 36.617 149.373 36.3381 147.39 36.3381C143.029 36.3381 138.456 38.792 135.162 41.4677C133.823 42.5557 132.333 43.5827 130.947 44.6911C129.77 45.633 129.287 46.9995 128.142 47.8991C124.758 50.558 122.907 55.6573 120.827 59.3051C119.045 62.4306 117.113 65.4517 115.93 68.8825C115.686 69.5906 115.589 70.3258 115.589 71.0676C115.589 72.0894 115.056 72.9802 115.031 73.9966C114.963 76.8185 115.031 79.6504 115.031 82.4736C115.031 86.4122 117.544 89.5683 118.642 93.2287C119.616 96.4734 122.724 99.0412 124.531 101.752C127.025 105.493 131.714 107.73 135.658 109.702C138.867 111.307 142.727 111.856 146.336 111.934C148.593 111.983 150.949 112.945 153.248 113.05C155.319 113.144 157.4 113.205 159.385 112.709C164.593 111.407 168.695 108.938 173.038 105.952C176.37 103.661 180.095 101.444 182.693 98.3738C185.285 95.3107 188.675 91.3835 188.675 87.1073"  stroke-width="13" stroke-linecap="round"/>
<path d="M233.028 13.1851C233.728 13.2727 233.307 22.4698 233.307 23.1654C233.307 26.7936 233.865 30.3515 233.865 33.9825C233.865 37.2163 233.865 40.45 233.865 43.6838C233.865 46.1596 233.693 48.8143 233.167 51.231C232.764 53.0872 233.157 55.0625 232.966 56.9495C232.783 58.7556 232.749 60.5187 232.749 62.3426C232.749 69.2544 232.749 76.1662 232.749 83.078C232.749 87.6445 232.749 92.2111 232.749 96.7776C232.749 100.569 233.604 105.186 235.957 108.323C236.785 109.428 238.297 112.36 239.94 112.492C241.429 112.611 242.861 113.803 244.465 114.011C245.668 114.167 247.436 114.46 248.649 114.026C250.558 113.345 252.432 112.771 254.445 112.771C255.914 112.771 257.26 113.05 258.692 113.05"  stroke-width="13" stroke-linecap="round"/>
<path d="M258.97 37.4539C257.688 36.5209 254.435 36.974 252.896 36.834C250.926 36.6549 249.017 36.3303 247.1 36.0746C244.389 35.7133 241.549 35.9452 238.808 35.6407C235.892 35.3166 233.077 35.1997 230.145 35.2223C227.96 35.2391 225.794 35.5012 223.606 35.5012C223.086 35.5012 221.967 35.4492 221.591 35.9197C221.247 36.3491 219.324 37.1927 218.801 37.4539"  stroke-width="13" stroke-linecap="round"/>
<path d="M293.003 75.3913C300.655 75.3913 308.323 75.5047 315.939 75.6703C324.412 75.8545 332.722 75.1124 341.168 75.1124C343.737 75.1124 346.226 75.6703 348.762 75.6703C349.532 75.6703 352.586 76.4797 352.977 75.7943C353.624 74.6625 353.28 72.527 352.977 71.3465C352.176 68.2223 351.088 65.0835 350.405 61.9397C349.863 59.4463 348.469 57.396 347.615 55.0898C347.151 53.8358 346.389 52.7176 345.941 51.4635C345.718 50.837 345.6 49.9631 345.167 49.4488C343.878 47.9189 342.938 45.946 341.664 44.3347C340.093 42.3474 337.18 41.0807 334.737 40.5379C328.655 39.1862 322.448 39.0936 316.311 38.2753C313.967 37.9628 311.687 37.9403 309.321 38.2908C306.569 38.6985 304.276 40.2865 301.867 41.7002C300.233 42.6592 297.738 42.9588 296.35 44.1487C295.039 45.2728 293.216 45.4531 291.949 46.5973C291.107 47.3576 290.652 47.7988 290.089 48.674C289.167 50.1081 287.667 51.437 287.021 52.9822C286.342 54.604 285.403 56.1232 284.758 57.7554C284.227 59.0987 284.143 60.5194 283.859 61.9087C283.234 64.9644 282.96 68.3323 282.96 71.455C282.96 74.5374 282.402 77.5842 282.402 80.6914C282.402 84.1392 283.441 87.2412 284.743 90.4237C286.56 94.8675 288.893 99.7573 292.228 103.348C294.063 105.325 295.527 107.885 298.024 109.206C300.484 110.509 303.232 110.917 305.896 111.438C312.061 112.644 318.125 112.492 324.416 112.492C327.19 112.492 330.04 110.885 332.707 110.245C333.975 109.94 336.135 109.222 337.17 108.463C338.16 107.736 338.807 106.73 339.898 106.184C341.925 105.171 343.978 102.802 345.585 101.194C346.746 100.034 347.92 98.8597 349.072 97.7075"  stroke-width="13" stroke-linecap="round"/>
</svg>
