<svg width="142" height="71" viewBox="0 0 142 71" fill="none" xmlns="http://www.w3.org/2000/svg">
<path d="M40.1443 4.7771C38.3595 13.1433 39.4724 21.9913 39.4724 30.4592C39.4724 35.0835 40.1443 39.6562 40.1443 44.2521C40.1443 48.3775 40.8162 52.4652 40.8162 56.5893C40.8162 57.8122 40.3672 63.4583 39.4724 63.9057M35.4409 31.6537C35.3518 30.852 34.2181 30.2367 33.7611 29.5633C32.9388 28.3515 31.7784 26.9833 30.7375 25.9425C29.3449 24.5498 27.2564 22.0519 25.1942 21.5937C23.1299 21.1349 20.4459 21.575 18.3071 21.575C16.4632 21.575 15.274 23.3762 13.6223 23.9267C12.1129 24.4298 10.3808 26.0028 9.40418 27.3049C8.08202 29.0678 7.27946 30.7463 6.39923 32.9602C4.61343 37.4518 5.87663 42.4241 5.87663 47.1078C5.87663 48.3083 6.6066 50.8821 7.1458 51.9605C8.0264 53.7217 8.94813 55.8803 10.0948 57.3545C10.7907 58.2493 11.8349 59.1479 12.2598 60.2102C12.5429 60.9179 13.3094 60.9638 13.6783 61.554C14.3085 62.5622 16.2914 62.2259 16.9632 63.0658C17.3158 63.5064 21.047 63.712 21.8346 63.887C24.2762 64.4296 26.1496 63.1463 28.3858 62.8978C30.3671 62.6777 36.9739 53.2496 35.4409 52.4831" stroke="black" stroke-width="9" stroke-linecap="round"/>
<path d="M81.4671 22.2469C84.3192 22.2469 86.4933 24.1507 88.5409 25.9425C90.1031 27.3094 91.8231 28.3467 92.7031 30.3846C94.2307 33.9223 95.5061 36.998 95.7454 40.8739C95.9422 44.0629 96.955 47.8649 95.9133 50.99C95.1526 53.2722 93.5631 55.4108 92.3858 57.5038C91.5099 59.061 89.7938 61.5942 88.1863 62.4872C87.2273 63.02 86.4072 63.4284 85.312 63.831C84.1514 64.2577 82.8577 65.2495 81.6351 65.2495C79.0776 65.2495 76.5481 65.5855 74.0014 65.5855C69.4978 65.5855 66.9223 59.5939 64.8559 56.44C63.5408 54.4327 61.953 52.3524 61.627 49.9074C61.2233 46.88 60.6332 43.6928 59.8912 40.7246C59.3281 38.4722 59.4372 35.6587 59.6485 33.3335C59.9074 30.4859 62.2853 28.5014 64.4826 26.9503C67.9154 24.5272 72.7113 21.239 77.0997 21.239" stroke="black" stroke-width="9" stroke-linecap="round"/>
<path d="M113.047 39.7167C120.905 39.7167 129.21 39.7167 136.9 39.7167" stroke="black" stroke-width="9" stroke-linecap="round"/>
</svg>
