<svg width="248" height="72" viewBox="0 0 248 72" fill="none" xmlns="http://www.w3.org/2000/svg">
<path d="M39.2757 4.7771C39.0869 4.61193 38.9397 10.879 38.9397 12.3175C38.9397 16.6378 39.6116 20.895 39.6116 25.2332V64.9136M36.2521 31.6537C35.0711 29.423 32.398 27.7993 30.2795 26.6144C28.237 25.472 26.8766 23.2571 24.6055 22.8442C22.5188 22.4648 20.0251 21.8685 18.1103 22.7695C16.6118 23.4747 14.3888 24.6649 13.239 25.9425C10.7173 28.7443 8.27984 31.1867 6.37049 34.528C4.50763 37.788 5.00799 41.7801 5.00799 45.428C5.00799 49.3878 5.06427 53.0025 6.27717 56.7759C7.78906 61.4796 13.0108 62.5619 17.2331 62.5619H23.2804C25.0814 62.5619 26.7047 61.6688 28.4504 61.0687C30.9807 60.1989 34.2596 58.2252 36.3641 56.7013C37.7465 55.7002 38.0971 54.6751 38.6038 53.155" stroke="black" stroke-width="9" stroke-linecap="round"/>
<path d="M85.6379 24.5986C84.8996 22.1376 79.1278 22.2469 77.0523 22.2469C72.4021 22.2469 67.5369 23.7793 63.446 25.9611C57.958 28.888 57.4174 34.3859 57.4174 39.9034C57.4174 47.9614 59.2401 61.3014 68.7093 63.7564C71.4536 64.4678 74.1695 64.9136 77.015 64.9136C79.3828 64.9136 82.6484 65.1272 84.7047 63.7564C88.994 60.8968 90.8287 56.5742 92.8423 51.9978C94.9817 47.1355 96.6273 39.8905 95.0447 34.6774C94.2749 32.1416 93.863 30.1361 91.9464 28.2195C90.7709 27.044 89.5045 26.1136 88.3255 24.9346" stroke="black" stroke-width="9" stroke-linecap="round"/>
<path d="M114.866 21.575L114.861 21.6772C114.359 31.7252 113.858 41.7323 113.858 51.8112C113.858 56.7524 114.53 61.6373 114.53 66.5934M118.562 32.9976C119.128 29.8825 123.039 26.987 125.542 25.5318C128.714 23.6879 133.344 21.9025 137.189 22.6015C139.144 22.9571 141.189 24.0451 142.583 25.4385C144.703 27.559 144.951 29.4123 145.774 32.139C147.538 37.9798 146.782 44.7689 146.782 50.822V64.9136" stroke="black" stroke-width="9" stroke-linecap="round"/>
<path d="M170.971 42.7404C173.515 42.9221 175.94 44.0842 178.512 44.0842C180.366 44.0842 182.22 44.0842 184.074 44.0842C187.597 44.0842 191.052 43.4436 194.526 43.0577C195.403 42.9602 200.853 42.5299 200.871 41.9191C200.943 39.474 200.181 35.534 198.594 33.5948C197.646 32.4352 197.385 30.5963 196.523 29.302C195.073 27.1276 193.7 24.3028 191.278 22.9188C188.676 21.4319 184.647 21.575 181.74 21.575C175.385 21.575 169.743 25.215 168.321 31.6164C167.274 36.3264 167.948 41.7 167.948 46.5106C167.948 51.7834 169.271 58.5132 174.312 61.3487C178.579 63.7489 182.86 64.2417 187.769 64.2417C190.429 64.2417 192.408 63.8065 194.824 62.5619C195.785 62.0671 198.184 60.3669 198.184 59.2023" stroke="black" stroke-width="9" stroke-linecap="round"/>
<path d="M243.202 39.7167C237.717 39.7167 232.156 40.0527 226.628 40.0527C225.562 40.0527 218.519 39.3615 218.005 40.3887" stroke="black" stroke-width="9" stroke-linecap="round"/>
</svg>
