<svg width="100" height="23" viewBox="0 0 324 68" fill="none" stroke="#FF1" xmlns="http://www.w3.org/2000/svg">
<path d="M4.36901 3.28264C4.36901 13.6931 3.89936 24.1163 3.67791 34.5244C3.63973 36.319 3.77627 37.4659 3.98281 39.1182C4.14924 40.4497 3.97557 41.674 4.2877 43.0006C4.74271 44.9343 4.36901 47.4116 4.36901 49.3831M5.83252 4.0144C15.0857 4.0144 26.9313 1.99519 32.7244 11.0067C34.7297 14.126 36.0226 16.631 36.5865 20.2959C37.1627 24.0413 38.0296 27.8198 38.0296 31.6381C38.0296 34.1805 36.1351 36.2667 35.8344 38.7727C35.6619 40.2096 34.0636 41.1551 33.3546 42.4314C32.148 44.6033 28.8522 46.2437 26.6875 47.2691C25.1316 48.0061 22.5913 48.6513 20.8335 48.6513C18.9242 48.6513 17.1433 49.3135 15.264 49.3831C12.6711 49.4791 9.37591 49.8324 6.93015 49.0172" stroke-width="6" stroke-linecap="round"/>
<path d="M57.4211 20.113C55.3131 20.113 52.5249 24.8604 52.0142 26.6987C51.4109 28.8708 51.2012 30.3648 51.2012 32.6341C51.2012 34.845 51.5944 36.9543 52.2175 39.0572C52.5973 40.3389 53.311 42.6401 54.3111 43.529C55.482 44.5698 56.1335 46.024 57.4414 47.0049C58.4687 47.7754 60.5349 48.5841 61.8116 48.6513C63.4793 48.7391 64.7164 49.3831 66.4054 49.3831C68.4415 49.3831 69.2627 47.9764 70.9585 47.3707C72.4846 46.8257 75.0613 45.6055 76.2637 44.4031C77.2636 43.4032 78.276 39.9083 78.276 38.5897C78.276 34.4589 80.7596 30.196 78.276 26.2515C75.3907 21.669 71.322 18.8315 66.2021 17.003C63.7737 16.1357 59.7053 16.3208 58.1528 18.6494"  stroke-width="6" stroke-linecap="round"/>
<path d="M95.8381 14.9907C95.8381 24.658 95.4722 34.3501 95.4722 44.0372C95.4722 48.4222 94.7405 52.6554 94.7405 57.0665C94.7405 58.3815 94.4764 59.9941 94.7608 61.274C95.0046 62.371 95.4722 62.7544 95.4722 64.0181M98.3992 23.04C98.9918 22.1242 100.041 20.9518 100.777 20.1333C101.739 19.0647 102.831 17.5169 104.05 16.8201C105.944 15.7379 107.76 15.7927 109.945 15.2752C112.881 14.5797 116.809 15.6737 118.604 18.2836C119.387 19.423 120.908 19.192 121.449 20.6821C121.95 22.058 122.181 23.7041 122.181 25.1539C122.181 28.2514 122.547 31.3829 122.547 34.5447C122.547 37.6983 122.107 41.1007 120.636 43.8949C119.483 46.0863 116.575 50.1148 113.766 50.1148H109.558C107.981 50.1148 106.511 49.4449 104.904 49.3831C103.783 49.34 101.768 47.3894 101.062 46.517C99.7677 44.9182 98.5108 42.3043 96.5698 41.3338"  stroke-width="6" stroke-linecap="round"/>
<path d="M138.646 21.2106C141.849 18.0073 145.637 16.1891 150.272 16.0883C154.149 16.004 158.681 16.8432 160.151 20.926C161.897 25.7747 161.33 30.9652 161.33 36.1302C161.33 40.4751 160.964 44.6831 160.964 49.0172M159.135 30.3575C151.339 30.3575 135.353 29.2237 135.353 40.4394C135.353 44.9437 139.384 49.1395 143.768 49.3831C146.326 49.5252 150.282 50.5064 152.915 49.566C153.846 49.2335 155.036 48.9285 155.76 48.2041C156.531 47.4337 158.368 47.5886 159.135 46.8219"  stroke-width="6" stroke-linecap="round"/>
<path d="M177.063 15.7224C177.063 13.7104 178.16 19.6458 178.16 21.6578V28.8127C178.16 31.7932 177.428 34.5201 177.428 37.4718V50.1148M180.356 21.5765C182.872 17.4588 187.644 16.4542 192.145 16.4542C194.426 16.4542 196.449 17.3625 197.918 19.1983C199.215 20.8199 198.994 22.0798 199.747 24.0563C201.623 28.981 199.996 34.5157 199.747 39.5044C199.64 41.6417 199.015 43.6894 199.015 45.8869V50.1148M201.576 20.8447C201.576 15.5553 207.993 16.4542 211.475 16.4542C215.819 16.4542 220.73 16.6929 221.313 21.9423C221.466 23.3206 222.065 24.4823 222.065 25.8857V37.7563C222.065 41.7902 221.7 45.6882 221.7 49.7489"  stroke-width="6" stroke-linecap="round"/>
<path d="M238.164 3.64852C236.923 3.64852 238.06 3.23062 238.896 3.64852M237.432 15.3566C239.254 18.1912 238.09 23.5568 238.713 26.9223C239.446 30.8811 238.896 35.4242 238.896 39.4434C238.896 43.2398 238.53 47.1442 238.53 50.8466"  stroke-width="6" stroke-linecap="round"/>
<path d="M254.994 16.0883C254.994 22.2402 254.85 28.3822 255.34 34.5041C255.547 37.0967 255.726 39.6602 255.726 42.2688V47.1878C255.726 47.8501 255.467 50.2444 254.994 50.4807M257.555 22.6741C257.555 21.0717 259.409 17.0983 261.214 16.8404C263.258 16.5484 264.831 16.2528 267.048 16.4745C269.257 16.6954 271.605 17.2051 273.735 17.8364C277.567 18.9718 278.023 21.2194 279.386 25.1133C281.125 30.081 280.163 35.8667 279.528 40.9476C279.145 44.0161 279.142 47.0125 279.142 50.1148"  stroke-width="6" stroke-linecap="round"/>
<path d="M297.802 32.1869C299.528 32.1869 301.259 32.8898 303.046 32.9186C305.473 32.9578 308.347 32.6029 310.77 32.1869C313.812 31.6645 316.478 31.4551 319.572 31.4551C323.404 31.4551 317.082 22.3678 316.096 20.6414C315.156 18.9975 312.794 17.7301 311.258 16.8201C309.735 15.9174 305.115 16.0647 303.656 17.003C301.559 18.3507 299.725 19.7786 298.452 21.9423C297.516 23.5336 295.574 24.9595 295.22 26.902C295.027 27.963 294.509 28.4741 294.509 29.6257V33.6504C294.509 35.6471 295.195 38.1529 296.054 39.8703C296.691 41.145 297.427 43.9011 298.696 44.6267C299.496 45.0836 301.424 47.5118 301.908 48.2854C302.787 49.6928 305.205 49.1416 306.563 49.566C308.093 50.0444 309.822 50.342 311.339 49.6676C312.727 49.0507 314.935 48.3887 315.933 47.3911C316.95 46.3738 319.592 46.211 320.12 44.6267"  stroke-width="6" stroke-linecap="round"/>
</svg>
