<svg width="90" height="44" viewBox="0 0 216 108" fill="none" stroke="#FF1" xmlns="http://www.w3.org/2000/svg">
<path d="M5.37939 5.11621C5.91788 20.7324 7.45589 36.098 7.45589 51.8374C7.45589 61.9321 7.30591 72.037 8.55182 82.0043C9.31222 88.0875 10.5706 94.0109 10.5706 100.231C10.5706 106.596 12.3667 87.5791 14.2045 81.4852C20.2537 61.4273 19.9149 39.2731 19.9149 18.3827C19.9149 15.5756 19.9149 7.15425 19.9149 9.96137C19.9149 18.1277 20.2537 26.4145 23.0296 34.1872C25.3112 40.5756 24.0679 48.8601 24.0679 55.5866C24.0679 66.0076 24.0679 76.4285 24.0679 86.8495C24.0679 90.5118 26.1444 93.4944 26.1444 97.0012C26.1444 98.4759 26.0708 99.9707 26.1444 101.443C26.4002 106.559 27.828 91.3227 28.2209 86.215C29.4221 70.5986 33.4121 55.5574 33.4121 39.8975C33.4121 33.5879 35.1892 24.4289 32.6046 18.6134C31.5085 16.1472 32.4763 17.9907 33.0083 19.8824C34.6958 25.8824 36.1329 31.8129 37.5651 37.8787C39.3557 45.4626 39.5504 54.8393 39.6416 62.6813C39.7708 73.7947 42.7563 84.7596 42.7563 95.7323C42.7563 112.837 45.8711 61.6169 45.8711 44.512C45.8711 37.3404 45.8711 30.1688 45.8711 22.9972C45.8711 15.9489 47.5872 32.7218 47.9476 34.4179C49.6034 42.21 50.9117 50.5438 51.0623 58.5283C51.3175 72.0519 55.595 84.1415 58.0994 97.2896C58.5069 99.4293 58.3301 101.478 58.3301 97.8664C58.3301 90.6756 58.3301 83.4848 58.3301 76.2939C58.3301 65.45 58.3301 54.6061 58.3301 43.7621C58.3301 34.9365 58.4352 26.3186 57.3495 17.6329C56.5944 11.5922 57.3607 13.0487 58.9069 18.6711C61.4036 27.7502 65.5978 38.3588 65.5978 47.7998C65.5978 61.0249 67.7166 75.09 69.9815 88.1761C70.3835 90.4985 71.3725 92.8398 72.3464 94.9824C72.8922 96.183 72.8656 100.224 72.8656 98.9047C72.8656 84.4968 72.6879 70.1505 72.8656 55.7597C73.0117 43.9216 73.9038 31.9181 73.9038 20.2285C73.9038 17.2861 73.5296 15.4867 72.8079 12.9608C70.2275 3.9293 77.4142 31.178 80.0756 40.1859C82.8866 49.7 86.5007 58.8141 88.4393 68.5071C90.3197 77.9093 91.1711 87.7207 93.6305 96.9435C94.3523 99.6503 95.707 107.878 95.707 99.8276C95.707 85.9556 96.7453 72.0927 96.7453 58.1823C96.7453 45.7236 94.3462 33.8949 93.6305 21.7282C93.1234 13.1068 98.0861 38.4248 99.86 46.8769C101.757 55.9157 101.508 65.3969 103.205 74.4482C104.141 79.4398 106.031 84.1654 107.128 89.099C107.602 91.2352 111.281 101.87 111.281 97.9241C111.281 77.8132 112.562 57.2115 111.223 37.1289C110.941 32.8924 109.397 29.3267 109.204 25.189C109.108 23.1193 106.923 12.4356 105.282 10.9996C99.6722 6.09102 110.751 24.9387 112.319 32.226C114.155 40.7581 115.035 49.3128 116.703 57.8362C117.469 61.7546 117.285 65.465 117.568 69.4299C117.863 73.5652 119.828 77.296 120.394 81.3698C121.043 86.0387 121.137 90.5259 123.163 94.867C123.743 96.1108 123.052 99.9249 123.97 98.9047C126.882 95.6693 125.816 88.401 125.816 84.5422C125.816 77.6398 125.816 70.7374 125.816 63.8349C125.816 55.5195 125.073 47.3975 124.778 39.1477C124.507 31.5513 119.528 9.40067 122.298 16.4793C127.379 29.4641 131.428 43.5202 134.641 57.0863C136.635 65.5053 140.57 73.4671 142.428 81.8313C143.2 85.3044 145.555 88.1802 146.35 91.5216C148.73 101.514 147.163 92.0309 146.812 87.0225C145.971 75.0321 146.364 63.5994 143.466 51.8374C141.966 45.7478 140.321 40.0316 139.083 33.8411C138.222 29.5392 138.073 25.4724 136.776 21.2091C136.198 19.3108 136.199 17.4527 136.199 15.4987C136.199 12.3258 138.259 19.56 138.737 20.4592C147.413 36.7915 151.841 54.176 154.368 72.3717C155.204 78.388 155.04 84.815 156.445 90.7141C157.311 94.3526 157.969 98.0333 158.809 101.673C159.597 105.084 158.923 94.6717 159.098 91.1755C159.644 80.2621 161.117 69.7242 161.117 58.7014C161.117 52.8902 161.972 46.8953 159.617 41.5126C158.166 38.1956 159.04 33.635 159.04 30.0342C159.04 26.4621 158.002 23.411 158.002 19.8824C158.002 16.5858 155.401 8.96526 157.656 15.7294C161.38 26.902 162.892 37.3786 164.462 49.0687C166.209 62.0732 166.44 74.64 167.404 87.657C167.559 89.745 170.172 102.786 170.98 97.2896C172.457 87.2467 170.422 77.0624 172.999 67.1227C175.499 57.4795 172.537 46.8538 172.537 37.3019C172.537 30.9476 171.499 11.9131 171.499 18.2674C171.499 32.2956 176.69 46.4159 176.69 60.3741C176.69 68.625 179.805 76.7028 179.805 84.8306C179.805 87.6919 180.284 90.0727 180.901 92.8482C182.147 98.456 182.021 97.9443 183.439 92.2714C186.316 80.7655 184.996 67.0099 184.996 55.0675C184.996 48.7996 184.996 42.5316 184.996 36.2637C184.996 33.0696 185.097 30.2158 184.189 27.1502C183.589 25.127 185.045 20.4906 183.727 18.8442C182.503 17.3132 183.817 29.3227 183.9 30.784C184.376 39.0966 185.427 47.2107 186.092 55.529C187.023 67.1674 189.382 78.7889 191.226 90.3103C192.2 96.3955 194.341 94.8558 194.341 88.926C194.341 77.7971 195.379 66.7386 195.379 55.5866C195.379 46.377 195.379 37.1673 195.379 27.9577C195.379 25.2066 195.217 22.3991 195.379 19.6517C195.548 16.7748 196.95 22.634 196.994 22.8241C198.113 27.622 198.44 31.6383 198.494 36.6098C198.594 45.9435 200.57 55.0963 200.57 64.5271C200.57 70.2205 202.493 75.3717 202.647 80.9084C202.769 85.3073 203.685 89.4587 203.685 93.8865C203.685 94.5848 204.645 98.4329 204.723 96.2514C204.881 91.8408 204.723 87.3984 204.723 82.9849C204.723 68.584 204.723 54.1831 204.723 39.7822C204.723 36.2637 204.723 32.7452 204.723 29.2267C204.723 25.8076 206.623 23.0096 206.8 19.6517C207.248 11.1275 206.8 21.044 206.8 24.8429C206.8 33.7437 207.502 42.5258 207.838 51.2606C208.24 61.7211 209.613 72.7457 209.914 82.9849C210.003 86.0037 209.171 90.2158 210.145 93.1366C211.187 96.2616 210.953 86.371 210.953 91.2909"  stroke-width="17" stroke-linecap="round"/>
</svg>
