<svg width="25" height="20" viewBox="0 0 96 48" fill="none" stroke="black" xmlns="http://www.w3.org/2000/svg">
<path d="M5.61828 4.92859C5.61828 14.2238 7.94373 23.8659 6.21559 33.0827C5.64958 36.1014 5.3277 39.629 5.3277 42.7042M12.0111 11.9026C15.9253 9.28274 19.6914 5.72507 24.5707 5.52592C26.6812 5.43977 28.8615 5.66751 30.7859 6.57524C33.6295 7.91657 36.4064 11.5266 37.4208 14.4855C39.2134 19.7138 38.39 24.8101 38.8899 30.2092C39.2428 34.0201 38.7446 37.7644 38.7446 41.5419"  stroke-width="9" stroke-linecap="round"/>
<path d="M75.6485 4.92859C71.6273 4.92859 67.5984 4.76002 64.4611 7.41468C63.6216 8.12498 62.8132 9.12948 62.088 9.96534C60.5479 11.7404 58.5967 13.5836 57.2773 15.5187C56.1432 17.1819 55.65 19.9263 55.1786 21.8792C54.6737 23.9711 54.8645 26.6432 55.1625 28.7886C55.6775 32.4967 57.7459 34.4592 60.3929 37.2316C61.8121 38.718 64.005 41.8042 66.2207 42.5428C68.636 43.3479 71.6349 43.6318 74.131 43.3822C78.9406 42.9012 84.5661 41.8298 87.5623 37.6352C88.7513 35.9706 89.6168 34.2764 90.339 32.3724C91.0663 30.4549 90.85 28.9146 91.1946 26.9159C92.1715 21.2499 89.2684 16.3864 86.8197 11.5797C84.7509 7.51867 80.7899 5.87741 76.5202 4.92859" stroke-width="9" stroke-linecap="round"/>
</svg>
