<svg width="100" height="18" viewBox="0 0 310 56" fill="none" stroke="#FF1" xmlns="http://www.w3.org/2000/svg">
<path d="M33.4122 13.2396C31.3275 9.98478 29.197 5.32923 24.9382 4.43785C22.9496 4.02164 20.8718 3.54832 18.887 3.54832C16.4513 3.54832 14.3101 3.50176 12.1102 4.60171C11.2635 5.02505 10.4051 5.19687 9.69906 5.86579C8.56925 6.93613 7.64658 8.16299 6.6091 9.28347C5.45876 10.5258 5.39184 13.3515 5.39184 14.9718C5.39184 17.3727 6.80082 19.4939 7.70931 21.538C7.91462 21.9999 8.80951 22.4492 9.23088 22.7201C10.0371 23.2384 11.2579 24.0529 12.1921 24.3002C13.6319 24.6813 15.9535 24.4029 17.1431 25.2951C18.1591 26.0571 19.4955 26.3367 20.5607 27.0976C22.5021 28.4842 23.9925 29.8913 26.2257 31.0302C27.3322 31.5946 28.4352 32.0614 29.421 32.7391C29.8449 33.0306 30.8274 33.5355 31.0947 34.0032C31.4387 34.6052 31.9636 35.6706 32.4056 36.1568C32.9702 36.7779 32.9777 38.4451 33.2951 39.3521C33.9247 41.1509 32.9638 43.6569 31.4692 44.7244C30.9932 45.0644 30.7759 45.6247 30.3456 45.9768C29.7231 46.4861 28.8481 46.8453 28.1803 47.3462C27.1106 48.1484 25.836 48.739 24.6573 49.3593C21.0472 51.2594 16.4808 51.9488 12.3911 51.2671C10.8868 51.0164 9.34499 50.1195 7.96681 49.4764C6.69153 48.8812 6.12535 47.9181 5.16946 47.0419C4.00217 45.9718 3.49573 44.2558 3.49573 42.7346"  stroke-width="6" stroke-linecap="round"/>
<path d="M52.3734 33.8861C57.7178 33.8861 62.942 33.2541 68.2913 33.2541C70.6014 33.2541 72.8653 33.2814 75.1267 33.0434C76.9488 32.8516 76.0412 30.1923 75.7119 29.2044C74.8891 26.736 73.9832 24.2101 72.4347 22.0881C71.4739 20.7714 70.6221 19.6904 69.4735 18.4597C68.7459 17.6802 67.6519 17.4361 66.6995 16.985C65.0385 16.1982 62.5171 16.4927 60.7537 16.8679C58.7287 17.2988 57.0996 18.2046 55.6389 19.6653C54.3918 20.9124 52.9403 21.4973 52.1627 23.2468C51.3044 25.178 49.7136 26.8201 49.2132 28.9469C48.6032 31.5393 48.1337 33.9158 48.3822 36.6484C48.6242 39.3112 49.1901 42.2163 50.5826 44.5371C53.6933 49.7217 59.1239 50.3191 64.8268 50.3191C68.9224 50.3191 75.9694 49.4084 75.9694 43.9987"  stroke-width="6" stroke-linecap="round"/>
<path d="M105.675 16.6104C104.107 16.6104 102.699 16.7044 101.145 16.9264C99.5049 17.1608 98.9675 17.6723 97.7746 18.6002C96.1296 19.8796 94.9086 21.6801 93.2567 22.9191C92.6658 23.3622 92.1937 24.2524 91.5596 24.5694C90.5707 25.0638 90.5062 25.0599 90.5062 23.8203C90.5062 22.8372 90.5062 21.854 90.5062 20.8708C90.5062 19.9416 90.1355 18.9974 90.0848 18.0852C89.9375 15.4325 91.1382 23.3288 91.1382 25.9856C91.1382 28.0031 90.7169 29.9697 90.7169 32.0017C90.7169 35.0863 89.8741 38.1147 89.8741 41.1896C89.8741 44.8372 90.5062 48.3683 90.5062 52.0045"  stroke-width="6" stroke-linecap="round"/>
<path d="M123.583 18.2959C123.47 17.3944 121.684 18.9154 121.476 19.1854C120.88 19.9599 120.04 20.5511 119.358 21.2337C118.084 22.5076 116.887 23.8528 116.197 25.576C115.705 26.806 115.287 28.0457 114.898 29.298C114.495 30.5983 114.539 31.9167 114.208 33.2424C113.969 34.1959 114.102 35.2701 114.102 36.2504C114.102 37.4444 114.593 38.3317 114.746 39.4808C114.867 40.388 115.57 41.398 115.835 42.3133C116.095 43.2137 116.539 44.5435 117.169 45.2628C117.698 45.8672 118.068 46.5829 118.644 47.1589C119.175 47.6898 120.007 47.8199 120.516 48.3294C121.108 48.9207 121.824 49.0918 122.529 49.5232C123.262 49.9711 124.151 50.2477 125.046 50.3074C127.235 50.4533 129.258 50.4845 131.472 50.3074C133.282 50.1625 134.396 48.8758 135.966 48.2591C137.277 47.7442 138.926 45.9423 139.548 44.6308C140.488 42.6446 140.735 40.3029 141.397 38.1933C141.997 36.2815 141.912 34.0986 141.912 32.1071C141.912 29.3135 142.008 25.4189 139.712 23.3522C138.096 21.8985 136.053 19.8292 134.07 18.9279C132.133 18.0473 130.756 16.6104 128.475 16.6104C127.538 16.6104 125.023 16.2932 124.636 17.4532"  stroke-width="6" stroke-linecap="round"/>
<path d="M159.82 6.07648C159.82 9.24874 160.409 12.3931 160.662 15.557C160.995 19.7103 161.505 23.7694 161.505 27.9403C161.505 31.9155 160.873 35.7811 160.873 39.7383C160.873 42.9498 162.177 47.7048 165.087 49.5232C166.711 50.5387 168.275 51.1618 170.354 51.1618C171.907 51.1618 171.618 49.2993 171.618 48.2123M152.025 17.8745H168.668"  stroke-width="6" stroke-linecap="round"/>
<path d="M196.478 16.3997C197.255 16.4774 198.366 17.1471 199.006 17.5585C199.795 18.0657 200.838 17.9101 201.628 18.4129C202.924 19.2375 204.183 19.6805 205.326 20.824C209.024 24.5214 209.751 30.1898 209.751 35.197C209.751 37.9425 210.66 41.6594 208.159 43.7061C205.971 45.4961 203.995 47.3244 201.581 48.8443C199.742 50.0024 198.106 50.7404 195.893 50.7404C193.497 50.7404 191.224 51.3848 189.116 50.2254C188.208 49.7262 187.294 49.1569 186.471 48.5166C185.55 47.8007 185.006 46.8823 183.978 46.2459C183.064 45.6805 182.205 44.236 181.637 43.3198C180.417 41.3553 179.413 38.6926 179.413 36.344C179.413 34.9629 179.413 33.5818 179.413 32.2007C179.413 31.4728 179.396 29.37 179.787 28.783C180.041 28.4027 180.084 27.6364 180.256 27.1912C180.546 26.4388 180.886 25.7083 181.204 24.9674C181.454 24.3839 182.328 23.2356 182.784 22.8255C184.057 21.6795 184.712 19.8803 185.944 18.7172C186.418 18.2693 186.831 17.8988 187.419 17.6638C187.682 17.5583 188.778 17.2815 188.893 17.1371C189.106 16.8716 190.278 16.6104 190.626 16.6104C191.422 16.6104 192.082 16.1891 192.896 16.1891C193.802 16.1891 195.805 15.8959 196.267 16.8211"  stroke-width="6" stroke-linecap="round"/>
<path d="M223.655 16.6104C224.367 20.1662 224.709 23.7367 224.709 27.355C224.709 28.7048 224.853 30.0957 224.498 31.4048C223.906 33.5899 224.415 36.0398 224.241 38.287C224.008 41.2876 224.064 44.2763 223.667 47.2525C223.519 48.3626 222.759 50.3445 223.445 51.3725M227.237 23.9842C227.308 21.9188 228.68 20.6806 229.625 18.963C230.12 18.0619 230.865 17.7221 231.79 17.2425C232.788 16.7251 233.727 16.2833 234.845 16.0837C236.717 15.7495 238.525 16.3807 240.381 16.587C242.285 16.7985 245.291 17.0002 246.362 18.9279C246.774 19.6692 247.093 20.2458 247.415 21.0347C247.959 22.3642 247.828 23.9545 248.305 25.2951C249.223 27.8777 248.726 31.2965 248.726 34.0032V42.208C248.726 43.3022 248.579 44.47 248.89 45.5203C249.149 46.3943 248.725 47.3665 249.101 48.2123C249.589 49.3117 248.726 50.3743 248.726 51.3725"  stroke-width="6" stroke-linecap="round"/>
<path d="M264.738 15.1357C264.738 23.6139 266.331 32.2606 265.417 40.7215C265.085 43.7933 264.593 47.7789 265.581 50.7405M264.738 3.759C265.027 4.30797 265.353 4.79542 265.791 5.23376"  stroke-width="6" stroke-linecap="round"/>
<path d="M281.592 15.9784V18.7172C281.592 19.8579 281.968 20.8843 282.014 22.0179C282.058 23.1373 282.306 24.2308 282.435 25.3419C282.8 28.4746 282.763 31.6844 282.845 34.8342C282.88 36.1791 282.856 37.5268 282.856 38.8722C282.856 40.3772 282.939 41.9128 282.809 43.4135C282.71 44.5666 282.904 46.4068 282.341 47.4515C282.127 47.8499 282.038 48.8523 282.014 49.2657C281.975 49.9239 281.592 50.5019 281.592 51.1618M284.542 22.5094C284.653 21.3972 286.157 20.3353 286.976 19.6653C288.027 18.8057 289.583 18.3552 290.883 17.979L290.921 17.9681C293.357 17.263 295.376 16.8211 297.861 16.8211C299.496 16.8211 302.05 17.6984 302.976 19.1386C304.006 20.74 305.451 22.0944 305.61 24.1012C305.735 25.6917 306.452 27.2004 306.452 28.8064V35.3726C306.452 37.8347 306.031 40.2545 306.031 42.6878C306.031 44.1228 306.313 45.9204 305.82 47.2759C305.625 47.8134 305.246 50.4534 305.82 50.7404"  stroke-width="6" stroke-linecap="round"/>
</svg>
