<svg width="1196" height="236" viewBox="0 0 1196 236" fill="none" stroke="white" xmlns="http://www.w3.org/2000/svg">
<path d="M19.4074 165.98C19.4074 156.615 18.8572 145.403 21.4531 136.318C25.8114 121.063 24.9308 102.852 24.9308 87.0672C24.9308 75.3385 24.9308 63.6098 24.9308 51.8811C24.9308 48.7693 24.6106 44.5245 23.2942 41.7037C19.6216 33.8338 33.3398 55.9703 37.1027 63.7973C42.8197 75.6886 47.9498 87.5047 54.0821 99.2903C58.8445 108.443 64.5344 116.639 69.476 125.424C71.1728 128.441 72.8246 131.524 74.6414 134.476C75.7291 136.244 76.1397 138.475 77.6077 140C78.8472 141.287 79.629 144.01 80.6251 144.807C81.299 145.346 83.3756 150.455 83.6425 149.921C87.1177 142.971 89.5202 135.2 93.0528 128.135C96.8835 120.473 100.623 113.582 105.532 106.348C108.803 101.527 112.402 97.4244 115.607 92.7952C118.244 88.9854 119.337 84.7471 122.051 80.8278C124.459 77.349 126.259 73.1694 129.159 70.0367C132.634 66.2843 132.031 61.6178 134.99 57.8136C137.202 54.9687 137.454 50.5465 139.797 47.9431C141.863 45.6479 140.922 49.2868 140.922 51.3185C140.922 54.8644 140.922 58.4103 140.922 61.9562C140.922 82.0224 140.71 101.67 143.735 121.333C144.841 128.522 147.366 136.088 147.366 143.477C147.366 147.577 149.207 150.864 149.207 154.933C149.207 157.278 150.033 161.188 151.048 163.219"  stroke-width="33" stroke-linecap="round"/>
<path d="M182.348 63.7973C182.763 67.3295 185.974 70.8484 187.155 74.1281C188.883 78.9281 190.264 83.4538 192.985 87.9366C199.579 98.7963 200.053 113.552 206.794 124.146C211.218 131.098 212.897 139.959 216.869 147.109C218.68 150.368 219.723 154.664 221.012 158.207C222.256 161.628 225.097 162.183 226.535 165.06M267.04 66.559C267.04 65.3033 266.989 68.6542 266.835 69.1161C266.024 71.55 264.251 73.7163 263.358 76.1738C261.791 80.4829 259.219 84.8006 257.527 89.2663C256.22 92.7179 256.725 97.6117 254.663 100.262C253.077 102.301 252.904 107.95 252.106 110.542C250.29 116.444 245.683 122.672 242.901 128.237C240.079 133.88 239.355 140.735 236.866 146.648C231.696 158.926 232.607 174.73 223.978 185.517C220.28 190.139 218.889 198.354 216.204 203.723C214.984 206.163 208.54 217.444 208.124 216.611"  stroke-width="33" stroke-linecap="round"/>
<path d="M363.699 35.2597C363.699 45.5348 366.123 55.2921 366.461 65.4339C366.706 72.7918 369.223 79.8776 369.223 87.2718C369.223 96.0843 371.064 104.664 371.064 113.508C371.064 118.388 369.477 126.903 371.524 131.408C373.657 136.099 371.922 143.292 373.365 148.489C374.748 153.467 376.931 158.931 377.508 163.935C378.078 168.872 383.717 171.504 388.094 171.504C390.681 171.504 398.511 172.764 399.602 170.583M341.606 69.3207C341.81 67.6906 346.848 70.058 348.254 70.4459C354.587 72.1929 362.315 71.1619 368.814 71.1619C376.626 71.1619 384.369 70.2413 392.237 70.2413"  stroke-width="33" stroke-linecap="round"/>
<path d="M475.088 72.0824C482.208 72.0824 488.567 70.7253 495.75 72.0313C502.33 73.2277 509.024 77.1964 514.672 80.8278C517.199 82.4521 518.851 86.4375 519.48 89.2663C520.336 93.1201 519.979 98.9393 521.321 102.461C523.693 108.687 519.501 113.361 519.275 119.236C518.856 130.135 511.775 142.735 502.245 148.029C491.818 153.822 481.721 154.933 470.025 154.933C460.58 154.933 452.381 155.993 444.914 149.205C441.15 145.784 436.654 140.722 434.583 136.062C431.89 130.003 432.742 123.333 432.742 116.73C432.742 114.428 432.742 112.127 432.742 109.826C432.742 106.758 434.387 105.002 434.583 102.257C435.046 95.773 439.357 90.1356 442.868 84.7658C448.163 76.6685 461.21 71.1618 470.485 71.1618"  stroke-width="33" stroke-linecap="round"/>
<path d="M682.216 81.2881C678.169 80.8834 673.439 76.1307 669.737 74.3327C665.195 72.1268 661.461 70.1284 656.389 68.8604C644.551 65.901 629.51 69.9471 620.026 76.9921C616.664 79.4897 612.907 80.4492 611.536 84.9703C610.092 89.7362 609.491 93.2563 609.491 98.3186C609.491 109.652 608.911 121.254 611.383 132.38C612.859 139.021 619.238 148.251 623.811 153.092C628.909 158.491 632.027 159.975 639.46 161.326C646.475 162.602 656.176 161.319 662.884 159.741C665.688 159.081 669.179 160.01 671.629 158.104C673.103 156.958 677.12 155.918 677.613 154.933M687.739 22.3718C687.739 48.6977 694.183 73.7034 694.183 99.904C694.183 112.728 695.553 126.44 697.814 138.875C698.473 142.499 697.902 146.75 696.996 149.921C696.44 151.868 694.644 157.465 696.945 158.616"  stroke-width="33" stroke-linecap="round"/>
<path d="M785.319 66.559C801.599 66.559 815.375 77.6346 827.154 87.2718C838.013 96.1564 835.95 110.568 835.95 123.174C835.95 128.609 833.341 131.86 830.427 136.318C827.661 140.547 822.343 142.637 819.585 146.648C817.37 149.87 809.298 150.954 805.878 151.967C798.861 154.047 790.976 155.437 783.478 155.854C777.291 156.198 761.501 161.293 756.781 155.394C755.578 153.889 752.597 153.644 751.309 151.711C749.935 149.65 747.38 147.032 746.655 144.858C745.756 142.162 742.58 139.554 742.104 136.931C741.675 134.573 741.132 130.975 741.132 128.646C741.132 121.314 740.655 114.974 743.894 108.496C745.44 105.403 746.291 101.922 747.78 98.7789C748.969 96.2688 750.821 92.0501 751.258 89.5732C751.547 87.9345 754.874 83.571 755.861 82.0041C758.029 78.5602 759.749 77.6053 763.225 75.7647C765.934 74.3307 768.725 72.7867 771.306 71.1619C772.971 70.1135 776.216 70.0363 777.034 68.4002"  stroke-width="33" stroke-linecap="round"/>
<path d="M926.166 19.6101C926.166 26.5094 928.007 32.93 928.007 39.9137C928.007 44.7382 928.007 49.5626 928.007 54.3871C928.007 71.0471 932.61 87.2202 932.61 103.842C932.61 124.614 932.61 145.587 932.61 165.98"  stroke-width="33" stroke-linecap="round"/>
<path d="M975.876 63.7973C978.094 71.2813 977.717 80.42 977.717 88.1923C977.717 92.4982 978.638 96.5532 978.638 100.825C978.638 109.779 980.292 118.867 981.604 127.726C983.461 140.26 981.4 152.582 981.4 165.06M977.717 21.4512V20.5307"  stroke-width="33" stroke-linecap="round"/>
<path d="M1091.87 86.8115C1091.39 83.0274 1081.78 77.887 1079.39 74.8441C1077.13 71.9635 1072.43 65.6738 1069.26 64.769C1067.8 64.3524 1065.26 63.2346 1063.79 62.4165C1058.16 59.2879 1042.54 59.4626 1038.68 65.6384C1036.88 68.5255 1031.03 70.2755 1030.14 73.4121C1030.03 73.7903 1025.55 77.3349 1025.08 77.6058C1023.01 78.7876 1023.75 82.4089 1023.75 84.5101C1023.75 90.8665 1024.4 94.4544 1027.48 100.109C1030.65 105.927 1038.86 107.997 1044 111.207C1046.53 112.79 1049.96 112.476 1052.28 114.428C1054.08 115.941 1058.68 118.313 1060.77 119.236C1066.65 121.821 1071.11 128.639 1076.93 131.203C1085.99 135.186 1087.29 146.773 1085.37 155.394C1084.18 160.742 1078.61 162.962 1075.09 165.776C1072.29 168.019 1059.88 165.98 1056.68 165.98C1050.54 165.98 1046 162.751 1040.11 162.298C1036.55 162.024 1032.29 160.573 1028.76 159.741C1026.52 159.215 1024.8 159.605 1022.83 158.616"  stroke-width="33" stroke-linecap="round"/>
<path d="M1134.21 37.1009C1134.21 43.3519 1134.94 49.8469 1135.85 56.0236C1136.53 60.5874 1135.53 65.2493 1136.52 69.781C1138.11 77.0996 1136.54 84.6607 1138.82 91.9257C1139.99 95.6658 1139.74 99.2567 1139.74 103.177C1139.74 107.614 1141.58 111.386 1141.58 115.809C1141.58 121.601 1140.81 128.032 1141.63 133.76C1142.45 139.53 1144.93 145.366 1145.26 151.251C1145.43 154.335 1146.15 162.697 1149.91 163.167C1152.21 163.455 1155.07 163.45 1157.28 162.758C1159.86 161.952 1163.1 163.109 1165.51 162.093C1168.9 160.667 1173.06 156.775 1176.56 156.775M1124.09 65.6385C1124.44 62.8011 1140.42 66.1387 1143.01 66.6102C1150.58 67.9866 1158.76 69.3207 1166.43 69.3207"  stroke-width="33" stroke-linecap="round"/>
</svg>
