<svg width="30" height="20" viewBox="0 0 132 69" fill="none" stroke="black" xmlns="http://www.w3.org/2000/svg">
<path d="M4.85632 5.80035C10.2792 17.8974 16.0776 29.833 21.7101 41.8325M38.8544 5.21918C36.6642 7.73783 36.3522 11.2876 35.3674 14.3564C34.3533 17.5162 32.9542 20.6091 31.4445 23.5581C28.5078 29.2949 25.3131 34.8911 22.2589 40.5733C19.4521 45.7953 17.9958 51.6179 15.3496 56.9104C14.4307 58.7481 13.2832 61.5299 13.2832 63.6261"  stroke-width="9" stroke-linecap="round"/>
<path d="M55.4175 25.5599C55.4986 24.9109 61.1214 24.6795 61.9394 24.5267C65.046 23.9464 68.6166 24.3864 71.7546 24.2523C76.3801 24.0546 81.009 24.107 85.638 24.107C87.0083 24.107 86.5323 20.5713 86.3806 19.8128C85.9537 17.6787 83.7822 15.3188 82.3609 13.7429C79.8357 10.9433 76.6368 7.76389 72.9815 6.51067C69.5214 5.32432 66.7795 5.5355 63.4731 7.1887C61.2951 8.27767 59.4737 9.75714 57.6776 11.3537C55.8524 12.9761 54.0845 13.763 53.1574 16.1321C51.1367 21.2963 51.1157 27.7799 51.9305 33.2119C52.3772 36.1896 52.8968 38.3606 55.5951 40.0567C56.3158 40.5097 56.6068 40.5374 57.5969 40.7024C61.3307 41.3247 65.1441 41.5674 68.9134 41.8648C70.5124 41.9909 72.1715 42.1788 73.7887 42.1231C77.3888 41.9989 81.1786 39.0273 83.6039 36.602" stroke-width="9" stroke-linecap="round"/>
<path d="M127.191 14.2272C127.191 13.0816 124.582 12.0805 123.833 11.2568C121.131 8.28398 119.124 6.67749 115.084 6.09095C111.163 5.52183 106.701 5.94965 103.783 8.86762C101.442 11.2091 101.245 16.0948 102.782 18.8765C105.363 23.5465 110.742 24.3492 115.277 25.9635C117.157 26.6325 118.97 27.8714 120.653 28.9177C123.502 30.6888 124.568 32.0277 125.528 35.2782C126.004 36.8872 125.966 39.3341 125.125 40.7832C123.91 42.8744 121.418 43.4964 119.442 44.5769C114.722 47.1582 107.545 48.2722 102.96 44.7221C101.55 43.6309 99.9401 41.8364 99.1661 40.2181C98.6681 39.1769 98.5961 37.9733 98.1329 36.8926" stroke-width="9" stroke-linecap="round"/>
</svg>
